<svg xmlns="http://www.w3.org/2000/svg" version="1.1" xmlns:xlink="http://www.w3.org/1999/xlink" xmlns:svgjs="http://svgjs.dev/svgjs" width="1000" height="1000" viewBox="0 0 1000 1000"><rect width="1000" height="1000" fill="#f6f4f4"></rect><g transform="matrix(0.7,0,0,0.7,150.61875409836063,146.08680161943317)"><svg viewBox="0 0 244 247" data-background-color="#f6f4f4" preserveAspectRatio="xMidYMid meet" height="1012" width="1000" xmlns="http://www.w3.org/2000/svg" xmlns:xlink="http://www.w3.org/1999/xlink"><g id="tight-bounds" transform="matrix(1,0,0,1,-0.21567999999999188,-0.09999999999999432)"><svg viewBox="0 0 244.43135999999998 247.2" height="247.2" width="244.43135999999998"><g><svg></svg></g><g><svg viewBox="0 0 244.43135999999998 247.2" height="247.2" width="244.43135999999998"><g transform="matrix(1,0,0,1,0,103.35342650602409)"><svg viewBox="0 0 244.43135999999998 40.49314698795181" height="40.49314698795181" width="244.43135999999998"><g><svg viewBox="0 0 244.43135999999998 40.49314698795181" height="40.49314698795181" width="244.43135999999998"><g><svg viewBox="0 0 244.43135999999998 40.49314698795181" height="40.49314698795181" width="244.43135999999998"><g><svg viewBox="0 0 244.43135999999998 40.49314698795181" height="40.49314698795181" width="244.43135999999998"><g id="textblocktransform"><svg viewBox="0 0 244.43135999999998 40.49314698795181" height="40.49314698795181" width="244.43135999999998" id="textblock"><g><svg viewBox="0 0 244.43135999999998 40.49314698795181" height="40.49314698795181" width="244.43135999999998"><g transform="matrix(1,0,0,1,0,0)"><svg width="244.43135999999998" viewBox="-2.700000047683716 -40.54999923706055 266.58001708984375 45" height="40.49314698795181" data-palette-color="#7540ff"><path d="M24.75-33.7L24.75-28.5 16.2-28.5 16.2 0 9.85 0 9.85-28.5 1.3-28.5 1.3-33.7 24.75-33.7ZM48.6-6.6L48.6-1.4Q45.95 0.25 40.95 0.25L40.95 0.25Q34.9 0.25 31.4-3.35 27.9-6.95 27.9-12.65L27.9-12.65Q27.9-18.7 31.2-22.15 34.5-25.6 39.45-25.6 44.4-25.6 47.3-22.6 50.2-19.6 50.2-13.85L50.2-13.85Q50.2-12.45 49.85-10.25L49.85-10.25 33.95-10.25Q34.6-7.5 36.67-6.05 38.75-4.6 41.85-4.6L41.85-4.6Q45.85-4.6 48.6-6.6L48.6-6.6ZM39.6-20.9L39.6-20.9Q37.45-20.9 35.87-19.33 34.3-17.75 33.85-14.75L33.85-14.75 44.5-14.75 44.5-15.5Q44.4-17.95 43.17-19.43 41.95-20.9 39.6-20.9ZM74.05-6.3L74.05-1.1Q71.4 0.45 67.45 0.45L67.45 0.45Q61.6 0.45 57.97-3.25 54.35-6.95 54.35-12.6L54.35-12.6Q54.4-18.15 57.97-21.95 61.55-25.75 67.75-25.75L67.75-25.75Q71.45-25.75 74.05-24.35L74.05-24.35 74.05-19.05Q71.55-20.65 68.35-20.65L68.35-20.65Q64.85-20.65 62.7-18.45 60.55-16.25 60.5-12.6L60.5-12.6Q60.6-9 62.67-6.8 64.75-4.6 68.3-4.6L68.3-4.6Q71.4-4.6 74.05-6.3L74.05-6.3ZM101.19-16.6L101.19 0 95.19 0 95.19-15.55Q95.19-17.95 93.97-19.3 92.74-20.65 90.79-20.65L90.79-20.65Q88.64-20.65 86.92-19 85.19-17.35 85.19-13.6L85.19-13.6 85.19 0 79.19 0 79.19-35.35 85.19-35.35 85.19-21.05Q87.24-25.65 92.94-25.65L92.94-25.65Q96.64-25.65 98.92-23.33 101.19-21 101.19-16.6L101.19-16.6ZM118.39-11.45L118.39-11.45 113.99-11.45 113.99 0 107.69 0 107.69-33.7 118.24-33.7Q123.94-33.7 127.37-30.6 130.79-27.5 130.79-22.65L130.79-22.65Q130.79-17.5 127.27-14.48 123.74-11.45 118.39-11.45ZM117.69-28.55L117.69-28.55 113.99-28.55 113.99-16.55 117.54-16.55Q120.99-16.55 122.69-18.2 124.39-19.85 124.39-22.65L124.39-22.65Q124.39-25.4 122.69-26.98 120.99-28.55 117.69-28.55ZM141.49-25.35L141.49 0 135.49 0 135.49-25.35 141.49-25.35ZM142.09-32.95L142.09-32.95Q142.09-31.4 141.04-30.35 139.99-29.3 138.49-29.3 136.99-29.3 135.94-30.35 134.89-31.4 134.89-32.95L134.89-32.95Q134.89-34.45 135.94-35.5 136.99-36.55 138.49-36.55 139.99-36.55 141.04-35.5 142.09-34.45 142.09-32.95ZM167.59-6.6L167.59-1.4Q164.94 0.25 159.94 0.25L159.94 0.25Q153.89 0.25 150.39-3.35 146.89-6.95 146.89-12.65L146.89-12.65Q146.89-18.7 150.19-22.15 153.49-25.6 158.44-25.6 163.39-25.6 166.29-22.6 169.19-19.6 169.19-13.85L169.19-13.85Q169.19-12.45 168.84-10.25L168.84-10.25 152.94-10.25Q153.59-7.5 155.66-6.05 157.74-4.6 160.84-4.6L160.84-4.6Q164.84-4.6 167.59-6.6L167.59-6.6ZM158.59-20.9L158.59-20.9Q156.44-20.9 154.86-19.33 153.29-17.75 152.84-14.75L152.84-14.75 163.49-14.75 163.49-15.5Q163.39-17.95 162.16-19.43 160.94-20.9 158.59-20.9ZM188.68-5.75L188.68-0.6Q186.93 0.25 184.18 0.25L184.18 0.25Q175.98 0.25 175.98-8.05L175.98-8.05 175.98-20.85 172.18-20.85 172.18-25.35 175.98-25.35 175.98-31.45 181.98-31.45 181.98-25.35 188.28-25.35 188.28-20.85 181.98-20.85 181.98-7.95Q181.98-6.35 182.83-5.53 183.68-4.7 185.18-4.7L185.18-4.7Q187.08-4.7 188.68-5.75L188.68-5.75ZM199.63-13.1L199.63 0 193.58 0 193.63-25.35 199.63-25.35 199.63-20.85Q201.38-25.55 206.03-25.55L206.03-25.55Q207.08-25.55 207.73-25.4L207.73-25.4 207.73-19.6Q206.58-20.1 205.18-20.1L205.18-20.1Q202.73-20.1 201.18-18.1 199.63-16.1 199.63-13.1L199.63-13.1ZM230.63-6.6L230.63-1.4Q227.98 0.25 222.98 0.25L222.98 0.25Q216.93 0.25 213.43-3.35 209.93-6.95 209.93-12.65L209.93-12.65Q209.93-18.7 213.23-22.15 216.53-25.6 221.48-25.6 226.43-25.6 229.33-22.6 232.23-19.6 232.23-13.85L232.23-13.85Q232.23-12.45 231.88-10.25L231.88-10.25 215.98-10.25Q216.63-7.5 218.7-6.05 220.78-4.6 223.88-4.6L223.88-4.6Q227.88-4.6 230.63-6.6L230.63-6.6ZM221.63-20.9L221.63-20.9Q219.48-20.9 217.9-19.33 216.33-17.75 215.88-14.75L215.88-14.75 226.53-14.75 226.53-15.5Q226.43-17.95 225.2-19.43 223.98-20.9 221.63-20.9ZM243.73-13.1L243.73 0 237.73 0 237.73-34.75 243.73-34.75 243.73-13.45 252.68-25.35 259.68-25.35 250.38-13.25 259.88 0 252.83 0 243.73-13.1Z" opacity="1" transform="matrix(1,0,0,1,0,0)" fill="#7540ff" class="undefined-text-0" data-fill-palette-color="primary" id="text-0"></path></svg></g></svg></g></svg></g></svg></g><g></g></svg></g></svg></g></svg></g><path d="M0 97.353L0 1 244.431 1 244.431 97.353 241.361 97.353 241.361 4.071 3.071 4.071 3.071 97.353 0 97.353M0 149.847L0 246.2 244.431 246.2 244.431 149.847 241.361 149.847 241.361 243.129 3.071 243.129 3.071 149.847 0 149.847" fill="#7540ff" stroke="transparent" data-fill-palette-color="primary"></path></svg></g><defs></defs></svg><rect width="244.43135999999998" height="247.2" fill="none" stroke="none" visibility="hidden"></rect></g></svg></g></svg>