{
  "accessors": [
    {
      "bufferView": 2,
      "componentType": 5126,
      "count": 4414,
      "max": [
        8.79830265045166,
        67.36970520019531,
        67.93102264404297
      ],
      "min": [
        -8.798298835754395,
        -37.50440216064453,
        -0.30994999408721924
      ],
      "type": "VEC3"
    },
    {
      "bufferView": 2,
      "byteOffset": 52968,
      "componentType": 5126,
      "count": 4414,
      "max": [
        0.9999786615371704,
        0.9937607049942017,
        0.9999561309814453
      ],
      "min": [
        -0.9999786615371704,
        -0.9996344447135925,
        -0.9999983310699463
      ],
      "type": "VEC3"
    },
    {
      "bufferView": 3,
      "componentType": 5126,
      "count": 4414,
      "max": [
        0.9999992251396179,
        0.9999876618385315,
        0.9985498785972595,
        1.0
      ],
      "min": [
        -0.9999992847442627,
        -0.9990162253379822,
        -0.9999483227729797,
        -1.0
      ],
      "type": "VEC4"
    },
    {
      "bufferView": 1,
      "componentType": 5126,
      "count": 4414,
      "max": [
        0.994140625,
        0.9938011169433594
      ],
      "min": [
        0.0095977783203125,
        0.009765625
      ],
      "type": "VEC2"
    },
    {
      "bufferView": 1,
      "byteOffset": 35312,
      "componentType": 5126,
      "count": 4414,
      "max": [
        0.994140625,
        0.9938011169433594
      ],
      "min": [
        0.0095977783203125,
        0.009765625
      ],
      "type": "VEC2"
    },
    {
      "bufferView": 1,
      "byteOffset": 70624,
      "componentType": 5126,
      "count": 4414,
      "max": [
        0.994140625,
        0.9938011169433594
      ],
      "min": [
        0.0095977783203125,
        0.009765625
      ],
      "type": "VEC2"
    },
    {
      "bufferView": 1,
      "byteOffset": 105936,
      "componentType": 5126,
      "count": 4414,
      "max": [
        3.296875,
        0.8311767578125
      ],
      "min": [
        -3.296875,
        -1.19921875
      ],
      "type": "VEC2"
    },
    {
      "bufferView": 0,
      "componentType": 5125,
      "count": 21918,
      "type": "SCALAR"
    },
    {
      "bufferView": 2,
      "byteOffset": 105936,
      "componentType": 5126,
      "count": 3296,
      "max": [
        7.024898529052734,
        59.177005767822266,
        59.53630065917969
      ],
      "min": [
        -7.024903297424316,
        -34.601505279541016,
        3.5000998973846436
      ],
      "type": "VEC3"
    },
    {
      "bufferView": 2,
      "byteOffset": 145488,
      "componentType": 5126,
      "count": 3296,
      "max": [
        0.9999988675117493,
        0.9989200830459595,
        0.999906599521637
      ],
      "min": [
        -0.9999988675117493,
        -0.9998223781585693,
        -0.999684751033783
      ],
      "type": "VEC3"
    },
    {
      "bufferView": 3,
      "byteOffset": 70624,
      "componentType": 5126,
      "count": 3296,
      "max": [
        0.9999988675117493,
        0.99900883436203,
        0.9999745488166809,
        1.0
      ],
      "min": [
        -0.9999988675117493,
        -0.9987336993217468,
        -0.9788483381271362,
        -1.0
      ],
      "type": "VEC4"
    },
    {
      "bufferView": 1,
      "byteOffset": 141248,
      "componentType": 5126,
      "count": 3296,
      "max": [
        0.99267578125,
        0.9854049682617188
      ],
      "min": [
        0.0146942138671875,
        0.00634765625
      ],
      "type": "VEC2"
    },
    {
      "bufferView": 1,
      "byteOffset": 167616,
      "componentType": 5126,
      "count": 3296,
      "max": [
        7.0234375,
        59.15625
      ],
      "min": [
        -7.0234375,
        -34.59375
      ],
      "type": "VEC2"
    },
    {
      "bufferView": 1,
      "byteOffset": 193984,
      "componentType": 5126,
      "count": 3296,
      "max": [
        0.99267578125,
        0.9854049682617188
      ],
      "min": [
        0.0146942138671875,
        0.00634765625
      ],
      "type": "VEC2"
    },
    {
      "bufferView": 0,
      "byteOffset": 87672,
      "componentType": 5125,
      "count": 15456,
      "type": "SCALAR"
    }
  ],
  "asset": {
    "extras": {
      "author": "An0n23 (https://sketchfab.com/an0n23)",
      "license": "CC-BY-4.0 (http://creativecommons.org/licenses/by/4.0/)",
      "source": "https://sketchfab.com/3d-models/white-sphynx-the-lost-ark-35aa659bbce84ec58a75e13e8c654387",
      "title": "White Sphynx - The Lost Ark"
    },
    "generator": "Sketchfab-15.24.0",
    "version": "2.0"
  },
  "bufferViews": [
    {
      "buffer": 0,
      "byteLength": 149496,
      "name": "floatBufferViews",
      "target": 34963
    },
    {
      "buffer": 0,
      "byteLength": 220352,
      "byteOffset": 149496,
      "byteStride": 8,
      "name": "floatBufferViews",
      "target": 34962
    },
    {
      "buffer": 0,
      "byteLength": 185040,
      "byteOffset": 369848,
      "byteStride": 12,
      "name": "floatBufferViews",
      "target": 34962
    },
    {
      "buffer": 0,
      "byteLength": 123360,
      "byteOffset": 554888,
      "byteStride": 16,
      "name": "floatBufferViews",
      "target": 34962
    }
  ],
  "buffers": [
    {
      "byteLength": 678248,
      "uri": "scene.bin"
    }
  ],
  "extensionsUsed": [
    "KHR_materials_clearcoat",
    "KHR_materials_specular"
  ],
  "images": [
    {
      "uri": "textures/mn_vohc_00_mi_baseColor.png"
    },
    {
      "uri": "textures/mn_vohc_00_mi_emissive.png"
    },
    {
      "uri": "textures/mn_vohc_00_mi_normal.png"
    },
    {
      "uri": "textures/mn_vohc_00_01_mi_baseColor.png"
    },
    {
      "uri": "textures/mn_vohc_00_01_mi_normal.png"
    },
    {
      "uri": "textures/mn_vohc_00_01_mi_clearcoat.png"
    }
  ],
  "materials": [
    {
      "doubleSided": true,
      "emissiveFactor": [
        1.0,
        1.0,
        1.0
      ],
      "emissiveTexture": {
        "index": 1,
        "texCoord": 1
      },
      "name": "mn_vohc_00_mi",
      "normalTexture": {
        "index": 2,
        "texCoord": 2
      },
      "pbrMetallicRoughness": {
        "baseColorTexture": {
          "index": 0
        },
        "metallicFactor": 0.0,
        "roughnessFactor": 0.93007462163784
      }
    },
    {
      "doubleSided": true,
      "extensions": {
        "KHR_materials_clearcoat": {
          "clearcoatFactor": 1.0,
          "clearcoatNormalTexture": {
            "index": 4
          },
          "clearcoatRoughnessFactor": 0.27276273603881457,
          "clearcoatTexture": {
            "index": 5
          }
        },
        "KHR_materials_specular": {
          "specularColorFactor": [
            1.0,
            1.0,
            1.0
          ],
          "specularFactor": 0.608001852958028
        }
      },
      "name": "mn_vohc_00_01_mi",
      "normalTexture": {
        "index": 4
      },
      "pbrMetallicRoughness": {
        "baseColorTexture": {
          "index": 3
        },
        "roughnessFactor": 0.24838170935378087
      }
    }
  ],
  "meshes": [
    {
      "name": "Sphynx_mn_vohc_00_mi_0",
      "primitives": [
        {
          "attributes": {
            "NORMAL": 1,
            "POSITION": 0,
            "TANGENT": 2,
            "TEXCOORD_0": 3,
            "TEXCOORD_1": 4,
            "TEXCOORD_2": 5,
            "TEXCOORD_3": 6
          },
          "indices": 7,
          "material": 0,
          "mode": 4
        }
      ]
    },
    {
      "name": "Sphynx_mn_vohc_00_01_mi_0",
      "primitives": [
        {
          "attributes": {
            "NORMAL": 9,
            "POSITION": 8,
            "TANGENT": 10,
            "TEXCOORD_0": 11,
            "TEXCOORD_1": 12,
            "TEXCOORD_2": 13
          },
          "indices": 14,
          "material": 1,
          "mode": 4
        }
      ]
    }
  ],
  "nodes": [
    {
      "children": [
        1
      ],
      "matrix": [
        1.0,
        0.0,
        0.0,
        0.0,
        0.0,
        2.220446049250313e-16,
        -1.0,
        0.0,
        0.0,
        1.0,
        2.220446049250313e-16,
        0.0,
        0.0,
        0.0,
        0.0,
        1.0
      ],
      "name": "Sketchfab_model"
    },
    {
      "children": [
        2
      ],
      "matrix": [
        0.009999999776482582,
        0.0,
        0.0,
        0.0,
        0.0,
        0.0,
        0.009999999776482582,
        0.0,
        0.0,
        -0.009999999776482582,
        0.0,
        0.0,
        0.0,
        0.0,
        0.0,
        1.0
      ],
      "name": "2c4bea1a4d95407a8bef2159b18cf0e4.fbx"
    },
    {
      "children": [
        3
      ],
      "name": "RootNode"
    },
    {
      "children": [
        4,
        5
      ],
      "matrix": [
        2.5400004386901855,
        -8.66161229237012e-25,
        8.66163170328212e-25,
        0.0,
        8.661634422304525e-25,
        7.97347993892764e-07,
        -2.5400004386900603,
        0.0,
        8.661609573340767e-25,
        2.5400004386900603,
        7.97347993892764e-07,
        0.0,
        2.894784563965691e-13,
        8.662937988485053e-13,
        1.4113720087837164e-19,
        1.0
      ],
      "name": "Sphynx"
    },
    {
      "mesh": 0,
      "name": "Sphynx_mn_vohc_00_mi_0"
    },
    {
      "mesh": 1,
      "name": "Sphynx_mn_vohc_00_01_mi_0"
    }
  ],
  "samplers": [
    {
      "magFilter": 9729,
      "minFilter": 9987,
      "wrapS": 10497,
      "wrapT": 10497
    }
  ],
  "scene": 0,
  "scenes": [
    {
      "name": "Sketchfab_Scene",
      "nodes": [
        0
      ]
    }
  ],
  "textures": [
    {
      "sampler": 0,
      "source": 0
    },
    {
      "sampler": 0,
      "source": 1
    },
    {
      "sampler": 0,
      "source": 2
    },
    {
      "sampler": 0,
      "source": 3
    },
    {
      "sampler": 0,
      "source": 4
    },
    {
      "sampler": 0,
      "source": 5
    }
  ]
}
